<?xml version="1.0" encoding="iso-8859-1"?>
<!-- Generator: Adobe Illustrator 18.0.0, SVG Export Plug-In . SVG Version: 6.00 Build 0)  -->
<!DOCTYPE svg PUBLIC "-//W3C//DTD SVG 1.1//EN" "http://www.w3.org/Graphics/SVG/1.1/DTD/svg11.dtd">
<!-- License: CC0. Made by SVG Repo: https://www.svgrepo.com/svg/107164/beaver -->
<svg version="1.1" id="Capa_1" xmlns="http://www.w3.org/2000/svg" xmlns:xlink="http://www.w3.org/1999/xlink" x="0px" y="0px"
	 viewBox="0 0 225.192 225.192" style="enable-background:new 0 0 225.192 225.192;" xml:space="preserve">
<g>
	<circle cx="104.606" cy="54.214" r="7.902"/>
	<circle cx="188.559" cy="54.214" r="7.902"/>
	<path d="M216.604,57.214c0-16.343-11.886-29.952-27.465-32.662c-0.162-0.423-0.366-0.837-0.617-1.235l-0.288-0.454
		c-9.073-14.26-24.635-22.772-41.627-22.772c-16.993,0-32.555,8.513-41.627,22.77l-0.289,0.457
		c-0.251,0.398-0.455,0.812-0.617,1.235c-15.579,2.71-27.465,16.319-27.465,32.662c0,8.169,3.066,15.87,8.238,21.802l-2.003,0.579
		c-0.441,0.128-0.869,0.299-1.276,0.51c-1.976,1.024-3.886,2.134-5.744,3.307c-0.53-5.856-1.463-11.757-2.828-17.656
		c-6.769-29.261-22.563-53.493-42.25-64.824c-3.179-1.828-7.237-0.893-9.292,2.149C8.742,21.907,5.192,50.614,11.959,79.874
		c5.108,22.081,15.686,41.841,29.29,54.947c-0.782,4.414-1.189,8.935-1.189,13.526c0,42.359,34.462,76.821,76.816,76.821
		l28.886,0.024c0.002,0,0.004,0,0.006,0c0.284,0,0.562-0.022,0.837-0.055c0.071-0.009,0.141-0.022,0.212-0.032
		c0.216-0.033,0.429-0.074,0.638-0.126c0.068-0.017,0.135-0.033,0.202-0.052c0.257-0.072,0.509-0.155,0.753-0.254
		c0.012-0.005,0.025-0.008,0.037-0.014c0.264-0.109,0.518-0.237,0.764-0.376c0.02-0.011,0.04-0.018,0.06-0.029
		c37.126-21.451,55.741-67.069,45.877-111.637c4.102-8.767,7.03-18.011,8.724-27.597c0.105-0.597,0.123-1.188,0.078-1.765
		C211.768,77.063,216.604,67.499,216.604,57.214z M202.604,57.214c0,7.224-4.125,13.836-10.459,17.079
		c-10.487-3.711-17.631-13.678-17.631-24.983c0-3.464,0.646-6.798,1.924-9.941c2.218-0.874,4.565-1.316,7.004-1.316
		C194.008,38.051,202.604,46.647,202.604,57.214z M146.607,14.089c10.212,0,19.686,4.293,26.31,11.689
		c-1.611,0.538-3.185,1.185-4.694,1.965c-1.398,0.646-2.572,1.748-3.299,3.171c-2.885,5.649-4.41,12.011-4.41,18.395
		c0,17.803,11.6,33.431,28.439,38.668c-2.066,8.764-5.34,17.16-9.762,25.047l-0.267,0.171c-7.382,4.725-16.042,7.414-25.317,7.922
		v-8.336c0.834-0.522,1.628-1.134,2.354-1.86l0.323-0.323c8.334-8.334,2.431-22.584-9.354-22.584h-0.645
		c-11.786,0-17.688,14.25-9.354,22.584l0.323,0.323c0.726,0.726,1.52,1.339,2.355,1.86v8.287c-8.925-0.626-17.9-3.819-25.762-9.238
		l-0.805-0.555c-3.938-7.377-6.868-15.191-8.781-23.299c16.839-5.237,28.439-20.865,28.439-38.668c0-6.384-1.525-12.745-4.41-18.395
		c-0.716-1.402-1.866-2.491-3.238-3.14c-1.528-0.794-3.122-1.452-4.755-1.997C126.919,18.383,136.394,14.089,146.607,14.089z
		 M109.771,38.051c2.439,0,4.787,0.441,7.004,1.316c1.277,3.144,1.924,6.478,1.924,9.941c0,11.305-7.144,21.271-17.629,24.982
		c-6.335-3.24-10.461-9.853-10.461-17.078C90.609,46.647,99.204,38.051,109.771,38.051z M25.6,76.719
		c-5.107-22.078-3.532-44.198,3.97-59.711c13.552,10.643,24.68,29.824,29.786,51.902c1.97,8.514,2.962,17.009,2.974,25.3
		c-7.125,7.164-12.733,15.647-16.542,24.955C36.587,108.159,29.422,93.245,25.6,76.719z M152.25,205.251v-28.826
		c0-3.866-3.134-7-7-7s-7,3.134-7,7v28.936l-1.015-0.725c-15.456-12.549-29.716-26.447-29.716-43.031c0-3.866-3.134-7-7-7
		s-7,3.134-7,7c0,20.233,14.251,36.323,29.695,49.568l-6.333-0.005c-34.641,0-62.822-28.182-62.822-62.821
		c0-4.909,0.571-9.721,1.654-14.365c0.02-0.084,0.04-0.168,0.057-0.253c2.82-11.872,9.029-22.621,17.864-30.981
		c0.252-0.199,0.485-0.419,0.707-0.65c3.891-3.571,8.266-6.693,13.073-9.25l3.385-0.979c2.337,9.636,5.933,18.904,10.772,27.621
		c0.523,0.944,1.259,1.754,2.147,2.366l2.181,1.503c8.847,6.097,18.883,9.97,29.044,11.307v4.76c0,2.762,2.238,5,5,5s5-2.238,5-5
		v-4.174c0.534,0.13,1.089,0.207,1.663,0.207c0.574,0,1.128-0.077,1.662-0.207v4.174c0,2.762,2.238,5,5,5s5-2.238,5-5v-4.647
		c8.958-0.982,17.429-3.65,25.023-7.899C186.376,157.459,174.612,187.187,152.25,205.251z"/>
</g>
</svg>
